<svg width="800" height="560" viewBox="0 0 800 560" fill="none" xmlns="http://www.w3.org/2000/svg">
  <rect width="800" height="560" rx="36" fill="#F9F4E8"/>
  <path d="M132 414C212 280 316 202 410 182C508 162 606 198 678 296" stroke="#295F3E" stroke-width="18" stroke-linecap="round"/>
  <path d="M676 296L640 286L654 322" stroke="#295F3E" stroke-width="18" stroke-linecap="round" stroke-linejoin="round"/>
  <path d="M678 382C598 516 494 594 400 614C302 634 204 598 132 500" stroke="#C97C12" stroke-width="18" stroke-linecap="round" transform="translate(0 -120)"/>
  <path d="M132 380L168 390L154 354" stroke="#C97C12" stroke-width="18" stroke-linecap="round" stroke-linejoin="round"/>
  <rect x="288" y="182" width="228" height="178" rx="24" fill="#DCE7DA"/>
  <rect x="360" y="154" width="84" height="24" rx="10" fill="#295F3E"/>
  <path d="M332 250H470" stroke="#295F3E" stroke-width="12" stroke-linecap="round"/>
  <path d="M400 214V286" stroke="#295F3E" stroke-width="12" stroke-linecap="round"/>
  <text x="94" y="132" fill="#173122" font-family="Arial, sans-serif" font-size="28" font-weight="700">Charge</text>
  <text x="610" y="452" fill="#173122" font-family="Arial, sans-serif" font-size="28" font-weight="700">Discharge</text>
  <text x="328" y="406" fill="#173122" font-family="Arial, sans-serif" font-size="28" font-weight="700">Battery Cycle</text>
</svg>
