<svg width="800" height="560" viewBox="0 0 800 560" fill="none" xmlns="http://www.w3.org/2000/svg">
  <rect width="800" height="560" rx="36" fill="#F9F4E8"/>
  <rect x="110" y="104" width="224" height="320" rx="24" fill="#FFFDF7"/>
  <rect x="138" y="154" width="168" height="22" rx="11" fill="#DDE8D6"/>
  <path d="M144 220L164 240L206 198" stroke="#295F3E" stroke-width="10" stroke-linecap="round" stroke-linejoin="round"/>
  <path d="M144 282L164 302L206 260" stroke="#295F3E" stroke-width="10" stroke-linecap="round" stroke-linejoin="round"/>
  <path d="M144 344L164 364L206 322" stroke="#295F3E" stroke-width="10" stroke-linecap="round" stroke-linejoin="round"/>
  <rect x="432" y="146" width="214" height="146" rx="20" fill="#173122"/>
  <path d="M452 176H626" stroke="#8DD4E8" stroke-width="6"/>
  <path d="M452 214H626" stroke="#8DD4E8" stroke-width="6"/>
  <path d="M452 252H626" stroke="#8DD4E8" stroke-width="6"/>
  <path d="M490 158V276" stroke="#8DD4E8" stroke-width="6"/>
  <path d="M538 158V276" stroke="#8DD4E8" stroke-width="6"/>
  <path d="M586 158V276" stroke="#8DD4E8" stroke-width="6"/>
  <circle cx="612" cy="388" r="48" fill="#F2AE2E"/>
  <path d="M612 352V424" stroke="#173122" stroke-width="10" stroke-linecap="round"/>
  <path d="M576 388H648" stroke="#173122" stroke-width="10" stroke-linecap="round"/>
  <text x="130" y="90" fill="#173122" font-family="Arial, sans-serif" font-size="28" font-weight="700">Inspection List</text>
  <text x="442" y="118" fill="#173122" font-family="Arial, sans-serif" font-size="28" font-weight="700">Panel Check</text>
  <text x="544" y="464" fill="#173122" font-family="Arial, sans-serif" font-size="28" font-weight="700">Service</text>
</svg>
