<svg width="800" height="560" viewBox="0 0 800 560" fill="none" xmlns="http://www.w3.org/2000/svg">
  <rect width="800" height="560" rx="36" fill="#FFF8EB"/>
  <circle cx="118" cy="118" r="54" fill="#F2AE2E"/>
  <circle cx="118" cy="118" r="78" stroke="#F6D384" stroke-width="14" stroke-dasharray="10 18"/>
  <rect x="250" y="150" width="168" height="224" rx="20" fill="#173122"/>
  <path d="M274 182H394" stroke="#8FD4E8" stroke-width="6"/>
  <path d="M274 222H394" stroke="#8FD4E8" stroke-width="6"/>
  <path d="M274 262H394" stroke="#8FD4E8" stroke-width="6"/>
  <path d="M274 302H394" stroke="#8FD4E8" stroke-width="6"/>
  <path d="M304 164V356" stroke="#8FD4E8" stroke-width="6"/>
  <path d="M346 164V356" stroke="#8FD4E8" stroke-width="6"/>
  <path d="M388 164V356" stroke="#8FD4E8" stroke-width="6"/>
  <rect x="534" y="176" width="126" height="98" rx="20" fill="#295F3E"/>
  <rect x="540" y="326" width="116" height="72" rx="18" fill="#DDE8D6"/>
  <path d="M172 118H238" stroke="#F2AE2E" stroke-width="10" stroke-linecap="round"/>
  <path d="M418 226H516" stroke="#F2AE2E" stroke-width="10" stroke-linecap="round"/>
  <path d="M598 274V318" stroke="#C97C12" stroke-width="10" stroke-linecap="round"/>
  <circle cx="334" cy="432" r="20" fill="#C97C12"/>
  <path d="M334 410V358" stroke="#C97C12" stroke-width="10" stroke-linecap="round"/>
  <text x="64" y="214" fill="#173122" font-family="Arial, sans-serif" font-size="26" font-weight="700">Sunlight</text>
  <text x="270" y="128" fill="#173122" font-family="Arial, sans-serif" font-size="26" font-weight="700">PV Cells</text>
  <text x="546" y="162" fill="#173122" font-family="Arial, sans-serif" font-size="26" font-weight="700">Inverter</text>
  <text x="534" y="430" fill="#173122" font-family="Arial, sans-serif" font-size="26" font-weight="700">Usable Power</text>
</svg>
