<svg width="800" height="560" viewBox="0 0 800 560" fill="none" xmlns="http://www.w3.org/2000/svg">
  <rect width="800" height="560" rx="36" fill="#FFF8EB"/>
  <rect x="84" y="110" width="262" height="326" rx="24" fill="#FFFDF7"/>
  <rect x="112" y="154" width="206" height="24" rx="10" fill="#DDE8D6"/>
  <rect x="112" y="202" width="166" height="18" rx="9" fill="#DDE8D6"/>
  <rect x="112" y="242" width="188" height="18" rx="9" fill="#DDE8D6"/>
  <rect x="112" y="282" width="152" height="18" rx="9" fill="#DDE8D6"/>
  <rect x="112" y="322" width="174" height="18" rx="9" fill="#DDE8D6"/>
  <circle cx="542" cy="198" r="118" fill="#F0E2BF"/>
  <rect x="474" y="150" width="132" height="92" rx="18" fill="#173122"/>
  <path d="M490 172H590" stroke="#8BD3E8" stroke-width="6"/>
  <path d="M490 198H590" stroke="#8BD3E8" stroke-width="6"/>
  <path d="M490 224H590" stroke="#8BD3E8" stroke-width="6"/>
  <path d="M522 160V234" stroke="#8BD3E8" stroke-width="6"/>
  <path d="M554 160V234" stroke="#8BD3E8" stroke-width="6"/>
  <path d="M586 160V234" stroke="#8BD3E8" stroke-width="6"/>
  <path d="M404 394C460 348 530 334 600 346C658 356 708 388 734 430" stroke="#295F3E" stroke-width="14" stroke-linecap="round"/>
  <circle cx="612" cy="372" r="24" fill="#C97C12"/>
  <path d="M616 426L692 498" stroke="#173122" stroke-width="14" stroke-linecap="round"/>
  <text x="104" y="92" fill="#173122" font-family="Arial, sans-serif" font-size="28" font-weight="700">Load Audit</text>
  <text x="460" y="88" fill="#173122" font-family="Arial, sans-serif" font-size="28" font-weight="700">Site Check</text>
</svg>
