<svg width="800" height="560" viewBox="0 0 800 560" fill="none" xmlns="http://www.w3.org/2000/svg">
  <rect width="800" height="560" rx="36" fill="#FFF7EA"/>
  <circle cx="156" cy="126" r="56" fill="#F2AE2E"/>
  <path d="M74 422H734" stroke="#2A6040" stroke-width="12" stroke-linecap="round"/>
  <rect x="108" y="334" width="198" height="88" rx="18" fill="#173122"/>
  <path d="M130 356H284" stroke="#89D0E6" stroke-width="6"/>
  <path d="M130 388H284" stroke="#89D0E6" stroke-width="6"/>
  <path d="M168 344V410" stroke="#89D0E6" stroke-width="6"/>
  <path d="M216 344V410" stroke="#89D0E6" stroke-width="6"/>
  <path d="M264 344V410" stroke="#89D0E6" stroke-width="6"/>
  <path d="M350 422V208" stroke="#295F3E" stroke-width="14" stroke-linecap="round"/>
  <path d="M448 422V164" stroke="#295F3E" stroke-width="14" stroke-linecap="round"/>
  <path d="M546 422V244" stroke="#295F3E" stroke-width="14" stroke-linecap="round"/>
  <path d="M350 226L448 182L546 260" stroke="#295F3E" stroke-width="10" stroke-linecap="round" stroke-linejoin="round"/>
  <path d="M350 284H448" stroke="#F2AE2E" stroke-width="8" stroke-linecap="round"/>
  <path d="M448 232H546" stroke="#F2AE2E" stroke-width="8" stroke-linecap="round"/>
  <rect x="598" y="286" width="118" height="136" rx="20" fill="#DCE7DA"/>
  <rect x="620" y="314" width="72" height="62" rx="12" fill="#295F3E"/>
  <text x="72" y="92" fill="#173122" font-family="Arial, sans-serif" font-size="28" font-weight="700">Sunlight</text>
  <text x="334" y="140" fill="#173122" font-family="Arial, sans-serif" font-size="26" font-weight="700">Grid</text>
  <text x="602" y="262" fill="#173122" font-family="Arial, sans-serif" font-size="26" font-weight="700">Home</text>
</svg>
