<svg width="800" height="560" viewBox="0 0 800 560" fill="none" xmlns="http://www.w3.org/2000/svg">
  <rect width="800" height="560" rx="36" fill="#FFF7E8"/>
  <circle cx="620" cy="130" r="62" fill="#F2AE2E"/>
  <circle cx="620" cy="130" r="88" stroke="#F5CF78" stroke-width="18" stroke-dasharray="8 22"/>
  <path d="M108 390L290 268L446 345L612 218L710 272V476H108V390Z" fill="#DDE8D6"/>
  <path d="M108 390L290 268L446 345L612 218L710 272" stroke="#2C6441" stroke-width="14" stroke-linecap="round" stroke-linejoin="round"/>
  <rect x="226" y="312" width="242" height="124" rx="18" fill="#173122"/>
  <path d="M244 334H450" stroke="#8AD0E6" stroke-width="6"/>
  <path d="M244 364H450" stroke="#8AD0E6" stroke-width="6"/>
  <path d="M244 394H450" stroke="#8AD0E6" stroke-width="6"/>
  <path d="M302 322V426" stroke="#8AD0E6" stroke-width="6"/>
  <path d="M362 322V426" stroke="#8AD0E6" stroke-width="6"/>
  <path d="M422 322V426" stroke="#8AD0E6" stroke-width="6"/>
  <rect x="495" y="328" width="112" height="72" rx="14" fill="#295F3E"/>
  <path d="M551 350V378" stroke="#FFF7E8" stroke-width="8" stroke-linecap="round"/>
  <path d="M537 364H565" stroke="#FFF7E8" stroke-width="8" stroke-linecap="round"/>
  <rect x="152" y="160" width="180" height="74" rx="20" fill="#FFFDF6"/>
  <text x="182" y="206" fill="#173122" font-family="Arial, sans-serif" font-size="30" font-weight="700">Learn Solar</text>
</svg>
